<?xml version="1.0" encoding="UTF-8" standalone="no"?>
<!-- Generator: Adobe Illustrator 16.0.0, SVG Export Plug-In . SVG Version: 6.00 Build 0)  -->

<svg
   xmlns:osb="http://www.openswatchbook.org/uri/2009/osb"
   xmlns:dc="http://purl.org/dc/elements/1.1/"
   xmlns:cc="http://creativecommons.org/ns#"
   xmlns:rdf="http://www.w3.org/1999/02/22-rdf-syntax-ns#"
   xmlns:svg="http://www.w3.org/2000/svg"
   xmlns="http://www.w3.org/2000/svg"
   xmlns:xlink="http://www.w3.org/1999/xlink"
   xmlns:sodipodi="http://sodipodi.sourceforge.net/DTD/sodipodi-0.dtd"
   xmlns:inkscape="http://www.inkscape.org/namespaces/inkscape"
   version="1.1"
   id="Capa_1"
   x="0px"
   y="0px"
   width="512px"
   height="512px"
   viewBox="0 0 561.099 561.099"
   style="enable-background:new 0 0 561.099 561.099;"
   xml:space="preserve"
   inkscape:version="0.91 r13725"
   sodipodi:docname="signup.svg"><metadata
     id="metadata5966"><rdf:RDF><cc:Work
         rdf:about=""><dc:format>image/svg+xml</dc:format><dc:type
           rdf:resource="http://purl.org/dc/dcmitype/StillImage" /><dc:title></dc:title></cc:Work></rdf:RDF></metadata><defs
     id="defs5964"><linearGradient
       id="linearGradient6508"
       osb:paint="solid"><stop
         style="stop-color:#7477bf;stop-opacity:1;"
         offset="0"
         id="stop6510" /></linearGradient><linearGradient
       inkscape:collect="always"
       xlink:href="#linearGradient6508"
       id="linearGradient6512"
       x1="0"
       y1="280.5495"
       x2="561.0975"
       y2="280.5495"
       gradientUnits="userSpaceOnUse" /></defs><sodipodi:namedview
     pagecolor="#ffffff"
     bordercolor="#666666"
     borderopacity="1"
     objecttolerance="10"
     gridtolerance="10"
     guidetolerance="10"
     inkscape:pageopacity="0"
     inkscape:pageshadow="2"
     inkscape:window-width="686"
     inkscape:window-height="480"
     id="namedview5962"
     showgrid="false"
     inkscape:zoom="0.4609375"
     inkscape:cx="256"
     inkscape:cy="256"
     inkscape:window-x="0"
     inkscape:window-y="0"
     inkscape:window-maximized="0"
     inkscape:current-layer="Capa_1" /><g
     id="g5924"
     style="fill-opacity:1;fill:url(#linearGradient6512)"><g
       id="g5926"
       style="fill-opacity:1;fill:url(#linearGradient6512)"><path
         d="M411.136,455.52H61.194V105.578h347.805l45.466-45.465c-10.245-9.725-24.052-15.734-39.254-15.734H57.124    C25.63,44.378,0,70.002,0,101.502v358.087c0,31.5,25.63,57.131,57.124,57.131h358.094c31.493,0,57.124-25.631,57.124-57.131    V247.47l-61.2,61.2v146.85H411.136z"
         fill="#933EC5"
         id="path5928"
         style="fill-opacity:1;fill:url(#linearGradient6512)" /><path
         d="M514.839,64.029c-5.294-5.293-12.228-7.938-19.162-7.938c-6.934,0-13.867,2.644-19.161,7.938l-10.82,10.814l-54.56,54.56    L256.146,284.398l-51.243-51.242c-5.293-5.294-12.228-7.938-19.162-7.938c-6.934,0-13.874,2.644-19.162,7.938l-38.323,38.323    c-10.582,10.581-10.582,27.742,0,38.323l70.404,70.404l38.323,38.324c5.294,5.294,12.228,7.938,19.162,7.938    c6.934,0,13.874-2.644,19.162-7.938l38.324-38.324l97.504-97.504l61.199-61.199l80.827-80.827    c10.582-10.582,10.582-27.742,0-38.323L514.839,64.029z"
         fill="#933EC5"
         id="path5930"
         style="fill-opacity:1;fill:url(#linearGradient6512)" /></g></g><g
     id="g5932" /><g
     id="g5934" /><g
     id="g5936" /><g
     id="g5938" /><g
     id="g5940" /><g
     id="g5942" /><g
     id="g5944" /><g
     id="g5946" /><g
     id="g5948" /><g
     id="g5950" /><g
     id="g5952" /><g
     id="g5954" /><g
     id="g5956" /><g
     id="g5958" /><g
     id="g5960" /></svg>