<?xml version="1.0" encoding="UTF-8" standalone="no"?>
<!-- Generator: Adobe Illustrator 19.1.0, SVG Export Plug-In . SVG Version: 6.00 Build 0)  -->

<svg
   xmlns:osb="http://www.openswatchbook.org/uri/2009/osb"
   xmlns:dc="http://purl.org/dc/elements/1.1/"
   xmlns:cc="http://creativecommons.org/ns#"
   xmlns:rdf="http://www.w3.org/1999/02/22-rdf-syntax-ns#"
   xmlns:svg="http://www.w3.org/2000/svg"
   xmlns="http://www.w3.org/2000/svg"
   xmlns:xlink="http://www.w3.org/1999/xlink"
   xmlns:sodipodi="http://sodipodi.sourceforge.net/DTD/sodipodi-0.dtd"
   xmlns:inkscape="http://www.inkscape.org/namespaces/inkscape"
   version="1.1"
   id="Layer_1"
   x="0px"
   y="0px"
   viewBox="0 0 32 32"
   style="enable-background:new 0 0 32 32;"
   xml:space="preserve"
   inkscape:version="0.91 r13725"
   sodipodi:docname="icon-twitter.svg"><metadata
     id="metadata9"><rdf:RDF><cc:Work
         rdf:about=""><dc:format>image/svg+xml</dc:format><dc:type
           rdf:resource="http://purl.org/dc/dcmitype/StillImage" /><dc:title></dc:title></cc:Work></rdf:RDF></metadata><defs
     id="defs7"><linearGradient
       id="linearGradient4192"
       osb:paint="solid"><stop
         style="stop-color:#ffffff;stop-opacity:0;"
         offset="0"
         id="stop4194" /></linearGradient><linearGradient
       id="linearGradient4186"
       osb:paint="solid"><stop
         style="stop-color:#4d4c72;stop-opacity:1;"
         offset="0"
         id="stop4188" /></linearGradient><linearGradient
       id="linearGradient4143"
       osb:paint="solid"><stop
         style="stop-color:#ffffff;stop-opacity:1;"
         offset="0"
         id="stop4145" /></linearGradient><linearGradient
       id="linearGradient4137"
       osb:paint="solid"><stop
         style="stop-color:#ffffff;stop-opacity:0;"
         offset="0"
         id="stop4139" /></linearGradient><linearGradient
       inkscape:collect="always"
       xlink:href="#linearGradient4143"
       id="linearGradient4147"
       x1="-0.1"
       y1="13.05"
       x2="32"
       y2="13.05"
       gradientUnits="userSpaceOnUse"
       gradientTransform="translate(57.270287,-7.490678)" /><linearGradient
       inkscape:collect="always"
       xlink:href="#linearGradient4186"
       id="linearGradient4190"
       x1="45.694914"
       y1="5.2203388"
       x2="99.525423"
       y2="5.2203388"
       gradientUnits="userSpaceOnUse"
       gradientTransform="matrix(0.87657431,0,0,0.90616622,8.9958582,-0.52710501)" /><linearGradient
       inkscape:collect="always"
       xlink:href="#linearGradient4143"
       id="linearGradient4196"
       x1="56.670479"
       y1="5.5593219"
       x2="89.770203"
       y2="5.5593219"
       gradientUnits="userSpaceOnUse" /></defs><sodipodi:namedview
     pagecolor="#ffffff"
     bordercolor="#666666"
     borderopacity="1"
     objecttolerance="10"
     gridtolerance="10"
     guidetolerance="10"
     inkscape:pageopacity="0"
     inkscape:pageshadow="2"
     inkscape:window-width="1920"
     inkscape:window-height="1017"
     id="namedview5"
     showgrid="false"
     inkscape:zoom="7.375"
     inkscape:cx="16"
     inkscape:cy="16"
     inkscape:window-x="-8"
     inkscape:window-y="-8"
     inkscape:window-maximized="1"
     inkscape:current-layer="Layer_1" /><ellipse
     style="fill:url(#linearGradient4190);fill-opacity:1;stroke-width:1;stroke-linecap:round;stroke-linejoin:round;stroke-miterlimit:4;stroke-dasharray:none"
     id="path4153"
     cx="72.644066"
     cy="4.2033896"
     rx="23.59322"
     ry="22.915255" /><path
     d="m 89.270287,-4.390678 c -1.2,0.5 -2.4,0.9 -3.8,1 1.4,-0.8 2.4,-2.1 2.9,-3.6 -1.3,0.8 -2.7,1.3 -4.2,1.6 -1.1,-1.3 -2.9,-2.1 -4.7,-2.1 -3.6,0 -6.6,2.9 -6.6,6.6 0,0.5 0.1,0.9999998 0.2,1.4999998 -5.5,-0.3 -10.3,-2.8999998 -13.6,-6.8999998 -0.6,1 -0.9,2.1 -0.9,3.3 0,2.3 1.2,4.2999998 2.9,5.5 -1.1,0 -2.1,-0.3 -3,-0.8000002 0,0 0,0.1 0,0.1 0,3.2000002 2.3,5.8000006 5.3,6.4000006 -0.6,0.1 -1.1,0.2 -1.7,0.2 -0.4,0 -0.8,0 -1.2,-0.1 0.8,2.5999996 3.3,4.4999996 6.1,4.5999996 -2.2,1.8 -5.1,2.8 -8.2,2.8 -0.5,0 -1.1,0 -1.6,-0.1 2.9,1.9 6.4,3 10.1,3 12.1,0 18.7,-9.9999996 18.7,-18.7000002 0,-0.2999998 0,-0.5999998 0,-0.7999998 1.3,-1 2.4,-2.2 3.3,-3.5 z"
     id="path3"
     style="fill:url(#linearGradient4196);fill-opacity:1.0;stroke:url(#linearGradient4147);stroke-width:1;stroke-linecap:round;stroke-linejoin:round;stroke-miterlimit:4;stroke-dasharray:none"
     inkscape:connector-curvature="0" /></svg>