<?xml version="1.0" encoding="UTF-8" standalone="no"?>
<!-- Generator: Adobe Illustrator 19.1.0, SVG Export Plug-In . SVG Version: 6.00 Build 0)  -->

<svg
   xmlns:osb="http://www.openswatchbook.org/uri/2009/osb"
   xmlns:dc="http://purl.org/dc/elements/1.1/"
   xmlns:cc="http://creativecommons.org/ns#"
   xmlns:rdf="http://www.w3.org/1999/02/22-rdf-syntax-ns#"
   xmlns:svg="http://www.w3.org/2000/svg"
   xmlns="http://www.w3.org/2000/svg"
   xmlns:xlink="http://www.w3.org/1999/xlink"
   xmlns:sodipodi="http://sodipodi.sourceforge.net/DTD/sodipodi-0.dtd"
   xmlns:inkscape="http://www.inkscape.org/namespaces/inkscape"
   version="1.1"
   id="Layer_1"
   x="0px"
   y="0px"
   viewBox="0 0 32 32"
   style="enable-background:new 0 0 32 32;"
   xml:space="preserve"
   inkscape:version="0.91 r13725"
   sodipodi:docname="icon-google-circle.svg"><metadata
     id="metadata9"><rdf:RDF><cc:Work
         rdf:about=""><dc:format>image/svg+xml</dc:format><dc:type
           rdf:resource="http://purl.org/dc/dcmitype/StillImage" /><dc:title></dc:title></cc:Work></rdf:RDF></metadata><defs
     id="defs7"><linearGradient
       id="linearGradient4192"
       osb:paint="solid"><stop
         style="stop-color:#ffffff;stop-opacity:0;"
         offset="0"
         id="stop4194" /></linearGradient><linearGradient
       id="linearGradient4186"
       osb:paint="solid"><stop
         style="stop-color:#7477bf;stop-opacity:1;"
         offset="0"
         id="stop4188" /></linearGradient><linearGradient
       id="linearGradient4143"
       osb:paint="solid"><stop
         style="stop-color:#ffffff;stop-opacity:1;"
         offset="0"
         id="stop4145" /></linearGradient><linearGradient
       id="linearGradient4137"
       osb:paint="solid"><stop
         style="stop-color:#ffffff;stop-opacity:0;"
         offset="0"
         id="stop4139" /></linearGradient><linearGradient
       inkscape:collect="always"
       xlink:href="#linearGradient4186"
       id="linearGradient4190"
       x1="45.694914"
       y1="5.2203388"
       x2="99.525423"
       y2="5.2203388"
       gradientUnits="userSpaceOnUse"
       gradientTransform="matrix(0.48459504,0,0,0.50095428,-19.194372,13.462407)" /><linearGradient
       gradientTransform="matrix(0.3601695,0,0,0.38599299,10.42373,10.269491)"
       inkscape:collect="always"
       xlink:href="#linearGradient4143"
       id="linearGradient4141"
       x1="0.80000001"
       y1="15.9"
       x2="32.799999"
       y2="15.9"
       gradientUnits="userSpaceOnUse" /></defs><sodipodi:namedview
     pagecolor="#ffffff"
     bordercolor="#666666"
     borderopacity="1"
     objecttolerance="10"
     gridtolerance="10"
     guidetolerance="10"
     inkscape:pageopacity="0"
     inkscape:pageshadow="2"
     inkscape:window-width="1920"
     inkscape:window-height="1018"
     id="namedview5"
     showgrid="false"
     inkscape:zoom="7.375"
     inkscape:cx="-24"
     inkscape:cy="16"
     inkscape:window-x="-8"
     inkscape:window-y="-8"
     inkscape:window-maximized="1"
     inkscape:current-layer="Layer_1" /><ellipse
     style="fill:url(#linearGradient4190);fill-opacity:1;stroke-width:1;stroke-linecap:round;stroke-linejoin:round;stroke-miterlimit:4;stroke-dasharray:none"
     id="path4153"
     cx="15.992148"
     cy="16.077549"
     rx="13.043004"
     ry="12.668204" /><path
     inkscape:connector-curvature="0"
     d="m 16.79873,20.189511 c 0,-0.115797 0,-0.192995 -0.03601,-0.308795 -0.03602,-0.0772 -0.03602,-0.192996 -0.07204,-0.270195 -0.03601,-0.0772 -0.07204,-0.154396 -0.108052,-0.270194 -0.07204,-0.0772 -0.108053,-0.154397 -0.144068,-0.231596 -0.03601,-0.0772 -0.108052,-0.115797 -0.180084,-0.231596 -0.07204,-0.0772 -0.144068,-0.154397 -0.180086,-0.192995 -0.03601,-0.0386 -0.108052,-0.115799 -0.216101,-0.192997 -0.108052,-0.0772 -0.180085,-0.154398 -0.216102,-0.154398 -0.03602,0 -0.108052,-0.0772 -0.216101,-0.154397 -0.108053,-0.0772 -0.180085,-0.154397 -0.216102,-0.154397 -0.07203,0 -0.180084,0 -0.360169,0 -0.252118,0 -0.504237,0 -0.720339,0.03859 -0.252119,0.0386 -0.504237,0.0772 -0.756358,0.192996 -0.252117,0.0772 -0.468218,0.192996 -0.684321,0.347394 -0.2161,0.154397 -0.360169,0.308794 -0.468219,0.54039 -0.108053,0.231597 -0.180085,0.501791 -0.180085,0.810585 0,0.347393 0.07203,0.656189 0.252118,0.887785 0.180086,0.270195 0.396186,0.463191 0.648306,0.617588 0.252118,0.154397 0.540252,0.270195 0.82839,0.347394 0.288134,0.0772 0.576271,0.115798 0.864405,0.115798 0.288135,0 0.540255,-0.0386 0.792374,-0.0772 0.252118,-0.0772 0.468221,-0.154397 0.684322,-0.308794 0.216102,-0.115798 0.396186,-0.308795 0.504237,-0.540391 0.108052,-0.231596 0.180085,-0.501791 0.180085,-0.810584 z m -0.828391,-6.407482 c 0,-0.308795 -0.03601,-0.61759 -0.108052,-0.964984 -0.07204,-0.347393 -0.180086,-0.656187 -0.324152,-0.964983 -0.144069,-0.308794 -0.324154,-0.57899 -0.576272,-0.771986 -0.25212,-0.192996 -0.540255,-0.308794 -0.82839,-0.308794 -0.432204,0 -0.756357,0.154397 -1.008475,0.50179 -0.252118,0.347394 -0.36017,0.733388 -0.36017,1.23518 0,0.231594 0.03602,0.463191 0.07204,0.733387 0.03601,0.270194 0.144068,0.50179 0.252119,0.771985 0.108052,0.270195 0.252119,0.501791 0.396186,0.694787 0.144068,0.192996 0.324154,0.385994 0.540255,0.501791 0.216101,0.115799 0.432201,0.192997 0.684321,0.192997 0.432205,0 0.756357,-0.154398 0.972457,-0.463192 0.180086,-0.270195 0.288137,-0.656188 0.288137,-1.157978 z m -0.900423,-3.512538 3.025423,0 -0.93644,0.578989 -0.936441,0 c 0.324152,0.231596 0.576272,0.540391 0.756356,0.926384 0.180085,0.385994 0.288136,0.810586 0.288136,1.235178 0,0.347393 -0.03601,0.694788 -0.144068,0.964983 -0.108052,0.270195 -0.25212,0.50179 -0.396186,0.694787 -0.144069,0.154397 -0.288137,0.347393 -0.468221,0.463192 -0.144068,0.154397 -0.288136,0.308793 -0.396186,0.463192 -0.108052,0.154397 -0.144069,0.308794 -0.144069,0.50179 0,0.115798 0.03601,0.270195 0.108052,0.385993 0.07204,0.115798 0.180086,0.231596 0.288136,0.347393 0.108052,0.115799 0.252119,0.231596 0.396186,0.347395 0.144069,0.115797 0.288137,0.270194 0.432205,0.424591 0.144067,0.154397 0.288134,0.308795 0.396186,0.501791 0.108052,0.192997 0.216101,0.385994 0.288135,0.617589 0.07204,0.231596 0.108052,0.501792 0.108052,0.771987 0,0.810585 -0.324155,1.505372 -0.972458,2.084362 -0.684323,0.656187 -1.656781,0.964982 -2.917374,0.964982 -0.288136,0 -0.540254,-0.0386 -0.828389,-0.0772 -0.288136,-0.0386 -0.576272,-0.115798 -0.82839,-0.231596 -0.288137,-0.115796 -0.540254,-0.270195 -0.756357,-0.424592 -0.216101,-0.154397 -0.396186,-0.385993 -0.540253,-0.656188 -0.108052,-0.231596 -0.180085,-0.50179 -0.180085,-0.849184 0,-0.308794 0.07204,-0.61759 0.252119,-1.003582 0.144068,-0.308794 0.360169,-0.57899 0.648304,-0.810585 0.288135,-0.231597 0.648304,-0.424593 1.008474,-0.54039 0.36017,-0.115798 0.72034,-0.192998 1.080509,-0.270195 0.324153,-0.0386 0.684321,-0.0772 1.044491,-0.115799 -0.288135,-0.424591 -0.432202,-0.771987 -0.432202,-1.11938 0,-0.0772 0,-0.115798 0,-0.192996 0,-0.0386 0.03601,-0.115798 0.03601,-0.154397 0,-0.0386 0.03602,-0.0772 0.07203,-0.154398 0.03602,-0.0772 0.03602,-0.115797 0.03602,-0.154397 -0.180085,0.0386 -0.360169,0.0386 -0.468221,0.0386 -0.68432,0 -1.260592,-0.231596 -1.764829,-0.733386 -0.504238,-0.501792 -0.720339,-1.080781 -0.720339,-1.814168 0,-0.694787 0.216101,-1.312377 0.648304,-1.852767 0.432204,-0.501791 0.972458,-0.849184 1.620763,-1.003583 0.432203,-0.115796 0.864406,-0.154396 1.29661,-0.154396 z m 7.167373,1.891367 0,0.964982 -1.76483,0 0,1.891365 -0.900424,0 0,-1.891365 -1.764832,0 0,-0.964982 1.764832,0 0,-1.891367 0.900424,0 0,1.891367 1.76483,0 z"
     id="path3"
     style="fill:url(#linearGradient4141);fill-opacity:1" /><ellipse
     style="fill:none;stroke-width:1;stroke-linecap:round;stroke-linejoin:round;stroke-miterlimit:4;stroke-dasharray:none"
     id="path4205"
     cx="28.542374"
     cy="18.779661"
     rx="7.3898306"
     ry="10.508474" /></svg>