<?xml version="1.0" encoding="UTF-8" standalone="no"?>
<!-- Generator: Adobe Illustrator 19.1.0, SVG Export Plug-In . SVG Version: 6.00 Build 0)  -->

<svg
   xmlns:osb="http://www.openswatchbook.org/uri/2009/osb"
   xmlns:dc="http://purl.org/dc/elements/1.1/"
   xmlns:cc="http://creativecommons.org/ns#"
   xmlns:rdf="http://www.w3.org/1999/02/22-rdf-syntax-ns#"
   xmlns:svg="http://www.w3.org/2000/svg"
   xmlns="http://www.w3.org/2000/svg"
   xmlns:xlink="http://www.w3.org/1999/xlink"
   xmlns:sodipodi="http://sodipodi.sourceforge.net/DTD/sodipodi-0.dtd"
   xmlns:inkscape="http://www.inkscape.org/namespaces/inkscape"
   version="1.1"
   id="Layer_1"
   x="0px"
   y="0px"
   viewBox="0 0 32 32"
   style="enable-background:new 0 0 32 32;"
   xml:space="preserve"
   inkscape:version="0.91 r13725"
   sodipodi:docname="icon-twitter-circle.svg"><metadata
     id="metadata9"><rdf:RDF><cc:Work
         rdf:about=""><dc:format>image/svg+xml</dc:format><dc:type
           rdf:resource="http://purl.org/dc/dcmitype/StillImage" /><dc:title></dc:title></cc:Work></rdf:RDF></metadata><defs
     id="defs7"><linearGradient
       id="linearGradient4192"
       osb:paint="solid"><stop
         style="stop-color:#ffffff;stop-opacity:0;"
         offset="0"
         id="stop4194" /></linearGradient><linearGradient
       id="linearGradient4186"
       osb:paint="solid"><stop
         style="stop-color:#7477bf;stop-opacity:1;"
         offset="0"
         id="stop4188" /></linearGradient><linearGradient
       id="linearGradient4143"
       osb:paint="solid"><stop
         style="stop-color:#ffffff;stop-opacity:1;"
         offset="0"
         id="stop4145" /></linearGradient><linearGradient
       id="linearGradient4137"
       osb:paint="solid"><stop
         style="stop-color:#ffffff;stop-opacity:0;"
         offset="0"
         id="stop4139" /></linearGradient><linearGradient
       inkscape:collect="always"
       xlink:href="#linearGradient4143"
       id="linearGradient4147"
       x1="-0.1"
       y1="13.05"
       x2="32"
       y2="13.05"
       gradientUnits="userSpaceOnUse"
       gradientTransform="matrix(0.38896839,0,0,0.38896839,9.9247693,11.216547)" /><linearGradient
       inkscape:collect="always"
       xlink:href="#linearGradient4186"
       id="linearGradient4190"
       x1="45.694914"
       y1="5.2203388"
       x2="99.525423"
       y2="5.2203388"
       gradientUnits="userSpaceOnUse"
       gradientTransform="matrix(0.48459504,0,0,0.50095428,-19.194372,13.462407)" /><linearGradient
       inkscape:collect="always"
       xlink:href="#linearGradient4143"
       id="linearGradient4196"
       x1="56.670479"
       y1="5.5593219"
       x2="89.770203"
       y2="5.5593219"
       gradientUnits="userSpaceOnUse"
       gradientTransform="matrix(0.38896839,0,0,0.38896839,-12.351564,14.13018)" /></defs><sodipodi:namedview
     pagecolor="#ffffff"
     bordercolor="#666666"
     borderopacity="1"
     objecttolerance="10"
     gridtolerance="10"
     guidetolerance="10"
     inkscape:pageopacity="0"
     inkscape:pageshadow="2"
     inkscape:window-width="1920"
     inkscape:window-height="1018"
     id="namedview5"
     showgrid="false"
     inkscape:zoom="7.375"
     inkscape:cx="-4"
     inkscape:cy="16"
     inkscape:window-x="-8"
     inkscape:window-y="-8"
     inkscape:window-maximized="1"
     inkscape:current-layer="Layer_1" /><ellipse
     style="fill:url(#linearGradient4190);fill-opacity:1;stroke-width:1;stroke-linecap:round;stroke-linejoin:round;stroke-miterlimit:4;stroke-dasharray:none"
     id="path4153"
     cx="15.992148"
     cy="16.077549"
     rx="13.043004"
     ry="12.668204" /><path
     d="m 22.371758,12.422347 c -0.466759,0.194489 -0.93352,0.350078 -1.478077,0.388972 0.544557,-0.311178 0.93352,-0.816832 1.128002,-1.400289 -0.505657,0.311177 -1.050214,0.505659 -1.633663,0.622358 -0.427867,-0.505662 -1.128007,-0.81684 -1.828162,-0.81684 -1.400275,0 -2.567179,1.128009 -2.567179,2.567191 0,0.194481 0.03894,0.388972 0.07779,0.583456 -2.139326,-0.116691 -4.006374,-1.128011 -5.28997,-2.683883 -0.233381,0.388968 -0.350072,0.816829 -0.350072,1.283589 0,0.89463 0.466762,1.672573 1.128009,2.139331 -0.427866,0 -0.816834,-0.116693 -1.166906,-0.311173 0,0 0,0.03894 0,0.03894 0,1.244697 0.894628,2.256017 2.061533,2.489395 -0.233381,0.03895 -0.427865,0.0778 -0.661247,0.0778 -0.155587,0 -0.311175,0 -0.466762,-0.03894 0.311175,1.011317 1.283597,1.750353 2.372708,1.789253 -0.85573,0.700144 -1.983738,1.089108 -3.189541,1.089108 -0.194484,0 -0.427865,0 -0.6223492,-0.03897 1.1280082,0.739039 2.4893982,1.166908 3.9285812,1.166908 4.706513,0 7.273706,-3.889687 7.273706,-7.27371 0,-0.116692 0,-0.233385 0,-0.31118 0.505662,-0.388968 0.933523,-0.855727 1.283598,-1.361384 z"
     id="path3"
     style="fill:url(#linearGradient4196);fill-opacity:1;stroke:url(#linearGradient4147);stroke-width:0.38896853;stroke-linecap:round;stroke-linejoin:round;stroke-miterlimit:4;stroke-dasharray:none"
     inkscape:connector-curvature="0" /></svg>