<?xml version="1.0" encoding="UTF-8" standalone="no"?>
<!-- Generator: Adobe Illustrator 19.1.0, SVG Export Plug-In . SVG Version: 6.00 Build 0)  -->

<svg
   xmlns:osb="http://www.openswatchbook.org/uri/2009/osb"
   xmlns:dc="http://purl.org/dc/elements/1.1/"
   xmlns:cc="http://creativecommons.org/ns#"
   xmlns:rdf="http://www.w3.org/1999/02/22-rdf-syntax-ns#"
   xmlns:svg="http://www.w3.org/2000/svg"
   xmlns="http://www.w3.org/2000/svg"
   xmlns:xlink="http://www.w3.org/1999/xlink"
   xmlns:sodipodi="http://sodipodi.sourceforge.net/DTD/sodipodi-0.dtd"
   xmlns:inkscape="http://www.inkscape.org/namespaces/inkscape"
   version="1.1"
   id="Layer_1"
   x="0px"
   y="0px"
   viewBox="0 0 32 32"
   style="enable-background:new 0 0 32 32;"
   xml:space="preserve"
   inkscape:version="0.91 r13725"
   sodipodi:docname="icon-linkedin-circle.svg"><metadata
     id="metadata9"><rdf:RDF><cc:Work
         rdf:about=""><dc:format>image/svg+xml</dc:format><dc:type
           rdf:resource="http://purl.org/dc/dcmitype/StillImage" /><dc:title></dc:title></cc:Work></rdf:RDF></metadata><defs
     id="defs7"><linearGradient
       id="linearGradient4192"
       osb:paint="solid"><stop
         style="stop-color:#ffffff;stop-opacity:0;"
         offset="0"
         id="stop4194" /></linearGradient><linearGradient
       id="linearGradient4186"
       osb:paint="solid"><stop
         style="stop-color:#7477bf;stop-opacity:1;"
         offset="0"
         id="stop4188" /></linearGradient><linearGradient
       id="linearGradient4143"
       osb:paint="solid"><stop
         style="stop-color:#ffffff;stop-opacity:1;"
         offset="0"
         id="stop4145" /></linearGradient><linearGradient
       id="linearGradient4137"
       osb:paint="solid"><stop
         style="stop-color:#ffffff;stop-opacity:0;"
         offset="0"
         id="stop4139" /></linearGradient><linearGradient
       inkscape:collect="always"
       xlink:href="#linearGradient4186"
       id="linearGradient4190"
       x1="45.694914"
       y1="5.2203388"
       x2="99.525423"
       y2="5.2203388"
       gradientUnits="userSpaceOnUse"
       gradientTransform="matrix(0.48459504,0,0,0.50095428,-19.194372,13.462407)" /></defs><sodipodi:namedview
     pagecolor="#ffffff"
     bordercolor="#666666"
     borderopacity="1"
     objecttolerance="10"
     gridtolerance="10"
     guidetolerance="10"
     inkscape:pageopacity="0"
     inkscape:pageshadow="2"
     inkscape:window-width="1920"
     inkscape:window-height="1018"
     id="namedview5"
     showgrid="false"
     inkscape:zoom="7.375"
     inkscape:cx="-4"
     inkscape:cy="16"
     inkscape:window-x="-8"
     inkscape:window-y="-8"
     inkscape:window-maximized="1"
     inkscape:current-layer="Layer_1" /><ellipse
     style="fill:url(#linearGradient4190);fill-opacity:1;stroke-width:1;stroke-linecap:round;stroke-linejoin:round;stroke-miterlimit:4;stroke-dasharray:none"
     id="path4153"
     cx="15.992148"
     cy="16.077549"
     rx="13.043004"
     ry="12.668204" /><g
     id="g4795"
     transform="matrix(0.02789939,0,0,0.02789939,10.16949,9.4576121)"><g
       id="g4756"><path
         d="m 430.117,261.543 0,159.017 -92.188,0 0,-148.367 c 0,-37.271 -13.334,-62.707 -46.703,-62.707 -25.473,0 -40.632,17.142 -47.301,33.724 -2.432,5.928 -3.058,14.179 -3.058,22.477 l 0,154.873 -92.219,0 c 0,0 1.242,-251.285 0,-277.32 l 92.21,0 0,39.309 c -0.187,0.294 -0.43,0.611 -0.606,0.896 l 0.606,0 0,-0.896 c 12.251,-18.869 34.13,-45.824 83.102,-45.824 60.673,-0.001 106.157,39.636 106.157,124.818 z M 52.183,9.558 C 20.635,9.558 0,30.251 0,57.463 c 0,26.619 20.038,47.94 50.959,47.94 l 0.616,0 c 32.159,0 52.159,-21.317 52.159,-47.94 C 103.128,30.251 83.734,9.558 52.183,9.558 Z M 5.477,420.56 l 92.184,0 0,-277.32 -92.184,0 0,277.32 z"
         id="LinkedIn"
         inkscape:connector-curvature="0"
         style="fill:#ffffff" /></g><g
       id="g4759" /><g
       id="g4761" /><g
       id="g4763" /><g
       id="g4765" /><g
       id="g4767" /><g
       id="g4769" /><g
       id="g4771" /><g
       id="g4773" /><g
       id="g4775" /><g
       id="g4777" /><g
       id="g4779" /><g
       id="g4781" /><g
       id="g4783" /><g
       id="g4785" /><g
       id="g4787" /></g></svg>