<?xml version="1.0" encoding="UTF-8" standalone="no"?>
<!-- Generator: Adobe Illustrator 19.1.0, SVG Export Plug-In . SVG Version: 6.00 Build 0)  -->

<svg
   xmlns:osb="http://www.openswatchbook.org/uri/2009/osb"
   xmlns:dc="http://purl.org/dc/elements/1.1/"
   xmlns:cc="http://creativecommons.org/ns#"
   xmlns:rdf="http://www.w3.org/1999/02/22-rdf-syntax-ns#"
   xmlns:svg="http://www.w3.org/2000/svg"
   xmlns="http://www.w3.org/2000/svg"
   xmlns:xlink="http://www.w3.org/1999/xlink"
   xmlns:sodipodi="http://sodipodi.sourceforge.net/DTD/sodipodi-0.dtd"
   xmlns:inkscape="http://www.inkscape.org/namespaces/inkscape"
   version="1.1"
   id="Layer_1"
   x="0px"
   y="0px"
   viewBox="0 0 32 32"
   style="enable-background:new 0 0 32 32;"
   xml:space="preserve"
   inkscape:version="0.91 r13725"
   sodipodi:docname="icon-github-circle.svg"><metadata
     id="metadata9"><rdf:RDF><cc:Work
         rdf:about=""><dc:format>image/svg+xml</dc:format><dc:type
           rdf:resource="http://purl.org/dc/dcmitype/StillImage" /><dc:title></dc:title></cc:Work></rdf:RDF></metadata><defs
     id="defs7"><linearGradient
       id="linearGradient4192"
       osb:paint="solid"><stop
         style="stop-color:#ffffff;stop-opacity:0;"
         offset="0"
         id="stop4194" /></linearGradient><linearGradient
       id="linearGradient4186"
       osb:paint="solid"><stop
         style="stop-color:#7477bf;stop-opacity:1;"
         offset="0"
         id="stop4188" /></linearGradient><linearGradient
       id="linearGradient4143"
       osb:paint="solid"><stop
         style="stop-color:#ffffff;stop-opacity:1;"
         offset="0"
         id="stop4145" /></linearGradient><linearGradient
       id="linearGradient4137"
       osb:paint="solid"><stop
         style="stop-color:#ffffff;stop-opacity:0;"
         offset="0"
         id="stop4139" /></linearGradient><linearGradient
       inkscape:collect="always"
       xlink:href="#linearGradient4186"
       id="linearGradient4190"
       x1="45.694914"
       y1="5.2203388"
       x2="99.525423"
       y2="5.2203388"
       gradientUnits="userSpaceOnUse"
       gradientTransform="matrix(0.48459504,0,0,0.50095428,-19.194372,13.326814)" /></defs><sodipodi:namedview
     pagecolor="#ffffff"
     bordercolor="#666666"
     borderopacity="1"
     objecttolerance="10"
     gridtolerance="10"
     guidetolerance="10"
     inkscape:pageopacity="0"
     inkscape:pageshadow="2"
     inkscape:window-width="1920"
     inkscape:window-height="1018"
     id="namedview5"
     showgrid="false"
     inkscape:zoom="7.375"
     inkscape:cx="-4"
     inkscape:cy="16"
     inkscape:window-x="-8"
     inkscape:window-y="-8"
     inkscape:window-maximized="1"
     inkscape:current-layer="Layer_1" /><ellipse
     style="fill:url(#linearGradient4190);fill-opacity:1;stroke-width:1;stroke-linecap:round;stroke-linejoin:round;stroke-miterlimit:4;stroke-dasharray:none"
     id="path4153"
     cx="15.992148"
     cy="15.941956"
     rx="13.043004"
     ry="12.668204" /><g
     id="g5078"
     transform="matrix(0.03652226,0,0,0.03019793,8.3489718,9.8446869)"><path
       id="Github"
       d="M 332.146,1.3 C 293.69,25.338 254.038,5.062 225.457,1.3 99.268,-15.326 59.152,131.895 151.094,190.921 c -23.671,12.258 -22.124,74.668 3.239,83.559 -59.739,6.833 -70.816,91.027 -38.793,125.349 38.965,41.752 158.828,38.989 193.976,0 24.539,-27.237 27.946,-83.372 6.454,-109.266 -19.593,-23.63 -117.904,-27.2 -116.374,-64.284 1.064,-25.921 36.613,-21.835 58.194,-32.143 40.589,-19.408 64.434,-77.478 48.491,-122.135 9.049,-1.701 16.797,-4.721 25.864,-6.422 l 0,-64.279 z m -155.18,134.995 c -47.308,-103.065 108.771,-95.673 61.428,0 -15.532,11.507 -46.092,12.651 -61.428,0 z m 87.284,202.471 c 4.191,46.223 -89.396,48.271 -100.219,16.087 -9.11,-27.116 2.231,-34.803 29.09,-41.789 30.422,-7.92 68.319,-5.213 71.129,25.702 z"
       inkscape:connector-curvature="0"
       style="fill:#ffffff" /></g></svg>